<svg width="391" height="80" viewBox="0 0 391 80" fill="none" xmlns="http://www.w3.org/2000/svg">
<g clip-path="url(#clip0_2_12)">
<path d="M69.5353 53.4374L79.6685 53.4248C81.3484 52.5082 80.8951 50.3088 80.8909 48.7319C80.5306 44.0416 80.5449 39.3302 80.1804 34.6441C79.614 27.0463 79.9978 21.7594 79.2261 14.6719C81.3434 13.3531 83.3191 11.4411 83.7857 8.88473C83.1523 6.03347 80.3748 4.49599 77.9031 3.43944C71.4205 0.811892 64.3447 0.175114 57.419 0H57.4055H57.3938C50.468 0.175114 43.3922 0.81273 36.9097 3.43944C34.4371 4.49599 31.6588 6.03347 31.0262 8.88556C31.0396 8.95678 31.053 9.02633 31.0689 9.09587C34.6005 8.58896 38.1857 8.37447 41.7643 8.28398L41.8464 8.28314H41.8933H41.9402L42.0223 8.28398C49.5363 8.47501 57.0729 9.20814 64.1009 12.0569L64.1395 12.0728L64.1789 12.0896C68.1361 13.7795 71.7297 16.2764 72.7184 20.7355L72.9178 21.6337L72.7527 22.5403C72.224 25.425 70.6086 27.7861 68.4796 29.6395C68.9145 35.471 68.772 41.2942 69.2069 47.135C69.3703 49.2338 69.4566 51.3343 69.5353 53.4374Z" fill="#CDD1D1"/>
<path d="M26.3794 79.1238L48.6414 79.0962C50.3214 78.1812 49.8689 75.9802 49.8639 74.4041C49.5036 69.7129 49.5187 65.0024 49.1534 60.3154C48.587 52.7185 48.9707 47.4307 48.1991 40.3441C50.3163 39.0244 52.292 37.1124 52.7587 34.5569C52.1253 31.7057 49.3478 30.1674 46.8761 29.1116C40.3935 26.4824 33.3177 25.8456 26.3919 25.6705L26.3794 25.6714L26.366 25.6705C19.441 25.8456 12.3644 26.4833 5.88265 29.1116C3.41179 30.1674 0.632588 31.7057 0 34.5569C0.467529 37.1124 2.44322 39.0244 4.5605 40.3441C3.78799 47.4307 4.17257 52.7177 3.60617 60.3154C3.24086 65.0033 3.25595 69.7138 2.89566 74.4041C2.89064 75.9802 2.43819 78.1812 4.11727 79.0962L26.3794 79.1238Z" fill="#CDD1D1"/>
<path d="M54.023 66.2727L64.1562 66.2601C65.8353 65.3451 65.3828 63.1441 65.3786 61.5689C65.0175 56.8768 65.0326 52.1655 64.6673 47.4802C64.1009 39.8824 64.4846 34.5946 63.713 27.508C65.8294 26.1892 67.8059 24.2763 68.2735 21.7217C67.64 18.8696 64.8617 17.3321 62.3891 16.2755C55.9074 13.6472 48.8308 13.0095 41.9067 12.8353H41.8933H41.8799C34.9549 13.0095 27.8791 13.648 21.3966 16.2755C18.924 17.3313 16.1456 18.8696 15.5131 21.7208C15.5256 21.7912 15.5407 21.8616 15.555 21.932C19.0874 21.4251 22.6718 21.2106 26.2511 21.1201L26.3333 21.1184H26.3802H26.4271L26.5084 21.1201C34.0224 21.3103 41.5589 22.0434 48.587 24.8922L48.6255 24.9089L48.6657 24.9248C52.6221 26.6156 56.2157 29.1116 57.2044 33.5708L57.4038 34.4698L57.2379 35.3755C56.7101 38.2595 55.093 40.6214 52.9648 42.4756C53.4005 48.3071 53.2581 54.1295 53.6921 59.9694C53.8563 62.0674 53.9451 64.1696 54.023 66.2727Z" fill="#CDD1D1"/>
<path d="M123.256 2.79285V60.8284H111.714V2.79285H123.256ZM152.762 17.6675C159.481 17.6675 164.792 19.7132 168.693 23.8043C172.595 27.8954 174.545 33.2469 174.545 39.8575C174.545 46.5227 172.554 51.8735 168.571 55.9108C164.588 59.9481 159.319 61.9663 152.762 61.9663C146.097 61.9663 140.813 59.9206 136.912 55.8295C133.01 51.7384 131.059 46.4146 131.059 39.8575C131.059 33.0841 133.051 27.692 137.034 23.6824C141.017 19.6727 146.259 17.6675 152.762 17.6675V17.6675ZM142.602 39.8575C142.602 44.1385 143.469 47.4438 145.203 49.774C146.937 52.1041 149.456 53.2691 152.762 53.2691C156.176 53.2691 158.736 52.077 160.443 49.6927C162.15 47.3084 163.003 44.0302 163.003 39.8575C163.003 35.5226 162.123 32.19 160.362 29.8598C158.601 27.5297 156.04 26.3647 152.681 26.3647C149.429 26.3647 146.937 27.5297 145.203 29.8598C143.469 32.1899 142.602 35.5226 142.602 39.8575V39.8575ZM201.369 17.6675C213.615 17.7217 219.738 21.7044 219.738 29.616V51.8873C219.738 56.0057 220.226 58.9861 221.201 60.8284H209.497C209.063 59.5278 208.792 58.1731 208.684 56.7643C205.27 60.2324 200.556 61.9663 194.541 61.9663C190.152 61.9663 186.67 60.8554 184.096 58.6337C181.522 56.4121 180.235 53.3234 180.235 49.3676C180.235 45.5203 181.455 42.5399 183.893 40.4265C186.386 38.2049 190.91 36.796 197.467 36.1998C202.127 35.7121 205.08 35.1025 206.327 34.371C207.573 33.6395 208.196 32.5151 208.196 30.9978C208.196 29.1012 207.627 27.6924 206.489 26.7711C205.352 25.8498 203.455 25.3893 200.8 25.3893C198.361 25.3893 196.519 25.8906 195.273 26.893C194.026 27.8955 193.295 29.5075 193.078 31.7293H181.536C181.807 27.1233 183.703 23.6281 187.226 21.2439C190.748 18.8597 195.462 17.6675 201.369 17.6675H201.369ZM191.777 48.8799C191.777 52.4563 194.134 54.2445 198.849 54.2445C205.026 54.1903 208.142 51.0202 208.196 44.7345V40.264C207.275 41.1851 204.945 41.8625 201.206 42.2959C197.955 42.6753 195.571 43.3391 194.053 44.2874C192.536 45.2358 191.777 46.7665 191.777 48.8799ZM245.261 2.79285C246.236 2.79285 248.268 2.90128 251.357 3.11806V11.734C249.84 11.5714 248.458 11.4901 247.212 11.4901C245.532 11.4901 244.367 11.8559 243.717 12.5874C243.066 13.319 242.741 14.5789 242.741 16.3671V18.8055H250.707V26.5273H242.741V60.8284H231.199V26.5273H224.29V18.8055H231.199V15.7168C231.199 11.5984 232.432 8.41482 234.898 6.16614C237.363 3.91747 240.817 2.79293 245.261 2.79293V2.79285ZM275.092 17.6675C287.338 17.7217 293.461 21.7044 293.461 29.616V51.8873C293.461 56.0057 293.949 58.9861 294.924 60.8284H283.22C282.786 59.5278 282.515 58.1731 282.407 56.7643C278.993 60.2324 274.279 61.9663 268.264 61.9663C263.875 61.9663 260.393 60.8554 257.819 58.6337C255.245 56.4121 253.958 53.3234 253.958 49.3676C253.958 45.5203 255.178 42.5399 257.616 40.4265C260.109 38.2049 264.633 36.796 271.19 36.1998C275.85 35.7121 278.803 35.1025 280.05 34.371C281.296 33.6395 281.919 32.5151 281.919 30.9978C281.919 29.1012 281.35 27.6924 280.212 26.7711C279.074 25.8498 277.178 25.3893 274.523 25.3893C272.084 25.3893 270.242 25.8906 268.995 26.893C267.749 27.8955 267.018 29.5075 266.801 31.7293H255.259C255.53 27.1233 257.426 23.6281 260.949 21.2439C264.471 18.8597 269.185 17.6675 275.092 17.6675H275.092ZM265.5 48.8799C265.5 52.4563 267.857 54.2445 272.572 54.2445C278.749 54.1903 281.865 51.0202 281.919 44.7345V40.264C280.998 41.1851 278.668 41.8625 274.929 42.2959C271.678 42.6753 269.294 43.3391 267.776 44.2874C266.259 45.2358 265.5 46.7665 265.5 48.8799ZM326.543 17.6675C331.908 17.6675 335.796 19.0224 338.207 21.7318C340.619 24.4412 341.824 28.7491 341.824 34.6557V60.8286H330.282V37.0129C330.282 33.5448 329.727 30.9708 328.616 29.2911C327.505 27.6114 325.595 26.7713 322.886 26.7713C319.743 26.7713 317.467 27.7196 316.058 29.6162C314.649 31.5127 313.944 34.6285 313.944 38.9636V60.8286H302.402V18.8057H313.375V24.658H313.619C316.491 19.9979 320.799 17.6677 326.543 17.6677V17.6675ZM367.347 17.6675C373.145 17.6675 377.318 19.9162 379.864 24.4139H380.027V18.8054H391V58.2273C391 64.2965 389.117 68.9021 385.351 72.0453C381.585 75.1885 376.233 76.7597 369.298 76.7597C363.987 76.7597 359.611 75.4862 356.171 72.9394C352.73 70.3926 350.901 67.1684 350.684 63.2668H362.145C363.066 67.1141 365.938 69.0379 370.761 69.0379C373.741 69.0379 376.031 68.1573 377.629 66.3962C379.227 64.6351 380.027 62.1289 380.027 58.8776V53.1066H379.864C378.726 55.1656 377.06 56.7643 374.865 57.9022C372.671 59.0402 370.138 59.6091 367.266 59.6091C361.63 59.6091 357.227 57.7667 354.057 54.0819C350.887 50.3972 349.302 45.1954 349.302 38.4758C349.302 32.5151 350.969 27.5571 354.301 23.6011C357.634 19.6451 361.982 17.6675 367.347 17.6675V17.6675ZM360.844 38.3132C360.844 42.269 361.671 45.3575 363.323 47.5794C364.976 49.8012 367.266 50.9119 370.192 50.9119C373.172 50.9119 375.556 49.8417 377.345 47.7013C379.133 45.5609 380.027 42.7297 380.027 39.2073C380.027 34.9806 379.173 31.7836 377.467 29.616C375.76 27.4484 373.308 26.3647 370.11 26.3647C367.13 26.3647 364.841 27.4891 363.242 29.7379C361.644 31.9867 360.844 34.8453 360.844 38.3132V38.3132Z" fill="#FF134B"/>
</g>
<defs>
<clipPath id="clip0_2_12">
<rect width="391" height="79.1238" fill="white"/>
</clipPath>
</defs>
</svg>
